<svg xmlns="http://www.w3.org/2000/svg" width="39" height="25" viewBox="0 0 39 25">
  <defs>
    <style>
      .cls-1 {
        fill: #fff;
      }

      .cls-2 {
        fill: #ff5f00;
      }

      .cls-3 {
        fill: #eb001b;
      }

      .cls-4 {
        fill: #f79e1b;
      }

      .cls-5 {
        fill: #2d327e;
      }
    </style>
  </defs>
  <g id="Group_9768" data-name="Group 9768" transform="translate(1185.328 66.691)">
    <g id="Apple_Pay_Mark_RGB_041619" transform="translate(-1185.328 -66.691)">
      <path id="XMLID_4_" d="M35.507,0H3.093c-.113,0-.225,0-.337.005A4.891,4.891,0,0,0,2.022.07a2.474,2.474,0,0,0-.7.23A2.345,2.345,0,0,0,.3,1.327a2.471,2.471,0,0,0-.23.7,4.877,4.877,0,0,0-.065.734C0,2.872,0,2.984,0,3.1c0,.134,0,.267,0,.4V21.5c0,.134,0,.267,0,.4,0,.112,0,.225.005.337a4.875,4.875,0,0,0,.065.734,2.47,2.47,0,0,0,.23.7A2.344,2.344,0,0,0,1.325,24.7a2.464,2.464,0,0,0,.7.23,4.928,4.928,0,0,0,.733.065q.168,0,.337,0H35.907q.168,0,.337,0a4.942,4.942,0,0,0,.733-.065,2.466,2.466,0,0,0,.7-.23A2.344,2.344,0,0,0,38.7,23.673a2.455,2.455,0,0,0,.23-.7,4.875,4.875,0,0,0,.065-.734q0-.169.005-.337c0-.134,0-.267,0-.4V3.5c0-.134,0-.267,0-.4q0-.169-.005-.337a4.877,4.877,0,0,0-.065-.734,2.456,2.456,0,0,0-.23-.7A2.345,2.345,0,0,0,37.675.3a2.476,2.476,0,0,0-.7-.23,4.9,4.9,0,0,0-.733-.065c-.113,0-.225,0-.337-.005Z" transform="translate(0)"/>
      <path id="XMLID_3_" class="cls-1" d="M38.178,3.532h.394c.107,0,.213,0,.32,0a4.153,4.153,0,0,1,.608.052,1.64,1.64,0,0,1,.467.153,1.51,1.51,0,0,1,.66.661,1.622,1.622,0,0,1,.152.467,4.142,4.142,0,0,1,.052.608c0,.106,0,.212,0,.32,0,.131,0,.262,0,.394V24.175c0,.131,0,.262,0,.4,0,.106,0,.212,0,.318a4.136,4.136,0,0,1-.052.61,1.617,1.617,0,0,1-.152.465,1.51,1.51,0,0,1-.661.661,1.627,1.627,0,0,1-.464.152,4.225,4.225,0,0,1-.606.052l-.325,0H5.794l-.318,0a4.232,4.232,0,0,1-.608-.052,1.632,1.632,0,0,1-.467-.153,1.51,1.51,0,0,1-.659-.66,1.635,1.635,0,0,1-.152-.468,4.121,4.121,0,0,1-.052-.607c0-.107,0-.213,0-.319V5.8c0-.107,0-.213,0-.32a4.124,4.124,0,0,1,.052-.609A1.632,1.632,0,0,1,3.742,4.4a1.51,1.51,0,0,1,.66-.66,1.637,1.637,0,0,1,.466-.152,4.148,4.148,0,0,1,.609-.052c.107,0,.213,0,.319,0H38.178" transform="translate(-2.684 -2.684)"/>
    </g>
    <g id="Group_11" data-name="Group 11" transform="translate(-1161.4 -52)">
      <rect id="Rectangle_5" data-name="Rectangle 5" class="cls-2" width="3.268" height="5.889" transform="translate(4.426 0.801)"/>
      <path id="Path_24" data-name="Path 24" class="cls-3" d="M254.528,358.811a3.743,3.743,0,0,1,1.427-2.945,3.745,3.745,0,1,0,0,5.889A3.742,3.742,0,0,1,254.528,358.811Z" transform="translate(-249.894 -355.065)"/>
      <path id="Path_25" data-name="Path 25" class="cls-4" d="M332.474,358.819a3.733,3.733,0,0,1-6.043,2.945,3.752,3.752,0,0,0,0-5.889,3.733,3.733,0,0,1,6.043,2.945Z" transform="translate(-320.371 -355.073)"/>
    </g>
    <path id="Logo" class="cls-5" d="M67.12,62.2l-2.283,5.52H63.348l-1.123-4.405a.6.6,0,0,0-.335-.485,5.837,5.837,0,0,0-1.39-.47l.033-.16h2.4a.659.659,0,0,1,.65.563l.593,3.195L65.64,62.2Zm5.836,3.718c.006-1.457-1.988-1.537-1.974-2.188,0-.2.19-.408.6-.462a2.628,2.628,0,0,1,1.389.247l.248-1.171A3.74,3.74,0,0,0,71.9,62.1c-1.393,0-2.373.751-2.381,1.825-.009.8.7,1.238,1.233,1.5s.733.444.731.686c0,.371-.438.534-.843.54a2.916,2.916,0,0,1-1.447-.349l-.255,1.21a4.216,4.216,0,0,0,1.567.293c1.48,0,2.448-.741,2.453-1.889m3.678,1.8h1.3L76.8,62.2H75.6a.642.642,0,0,0-.6.4L72.882,67.72h1.479l.294-.825h1.808Zm-1.572-1.957L75.8,63.69l.427,2.073ZM69.133,62.2l-1.165,5.521h-1.41l1.166-5.52Z" transform="translate(-1242.984 -112.315)"/>
    <rect id="Rectangle_2927" data-name="Rectangle 2927" width="39" height="1" transform="translate(-1185.328 -62)"/>
    <rect id="Rectangle_2928" data-name="Rectangle 2928" width="39" height="1" transform="translate(-1185.328 -57)"/>
  </g>
</svg>
